<svg xmlns="http://www.w3.org/2000/svg" xml:space="preserve" width="1500" height="187" data-id="lg_iAoCqFCpbu1gW7glSB" data-version="1" viewBox="0 0 1500 187"><g data-padding="20"><g transform="translate(10 2.4)scale(.97433)"><rect width="560" height="163.85" x="35.661" y="-350.758" fill="none" rx="0" ry="0" transform="translate(470.17 399.97)scale(1.14)"/><path fill="#010c80" d="M542.653 147.092q-13.224 0-20.007-7.524-6.772-7.524-6.772-21.57v-6.611h17.19v7.934q0 11.24 9.418 11.24 4.628 0 7.022-2.735 2.406-2.725 2.406-8.835 0-7.274-3.306-12.814T536.37 92.873q-11.24-9.918-15.71-17.943-4.456-8.015-4.456-18.092 0-13.726 6.942-21.25 6.943-7.512 20.167-7.512 13.053 0 19.745 7.512 6.703 7.524 6.703 21.58v4.788H552.57v-5.95q0-5.951-2.314-8.676-2.315-2.724-6.783-2.724-9.086 0-9.086 11.069 0 6.281 3.386 11.742 3.385 5.45 12.312 13.224 11.41 9.918 15.709 18.012 4.298 8.105 4.298 19.015 0 14.216-7.034 21.82-7.023 7.604-20.406 7.604m37.848-1.653V29.729h49.59v16.53h-31.407v30.574h24.966v16.53h-24.966v35.546h31.407v16.53Zm85.625 1.653q-13.053 0-19.916-7.445-6.862-7.432-6.862-20.987V56.507q0-13.554 6.862-20.999 6.863-7.432 19.916-7.432 13.065 0 19.916 7.432 6.863 7.445 6.863 21v12.231h-17.191V55.344q0-10.738-9.086-10.738-9.097 0-9.097 10.738v64.638q0 10.58 9.097 10.58 9.086 0 9.086-10.58V102.29h17.19v16.37q0 13.555-6.862 20.987-6.851 7.445-19.916 7.445m64.137-.012q-13.224 0-20.167-7.524t-6.943-21.57v-88.27h18.183v89.593q0 5.951 2.394 8.596 2.406 2.645 6.863 2.645 4.469 0 6.863-2.645t2.394-8.596V29.717h17.522v88.27q0 14.045-6.943 21.569t-20.166 7.524m40.002-1.641V29.729h26.95q14.045 0 20.497 6.52 6.44 6.533 6.44 20.087v7.114q0 18.012-11.901 22.811v.33q6.612 1.984 9.337 8.095 2.736 6.122 2.736 16.37v20.326q0 4.96.33 8.015.33 3.066 1.654 6.042h-18.514q-.992-2.816-1.322-5.29-.331-2.485-.331-8.926v-21.159q0-7.934-2.565-11.08-2.565-3.135-8.846-3.135h-6.282v49.59Zm18.183-66.12h6.612q5.46 0 8.185-2.816 2.725-2.805 2.725-9.417V58.16q0-6.281-2.234-9.097-2.223-2.804-7.023-2.804h-8.265Zm48.439 66.12V29.729h49.59v16.53H855.07v30.574h24.954v16.53H855.07v35.546h31.407v16.53Zm59.998 0V29.729h27.77q13.555 0 20.338 7.273 6.772 7.273 6.772 21.318v58.516q0 14.056-6.772 21.33-6.783 7.273-20.338 7.273Zm18.183-16.53h9.257q4.469 0 6.863-2.645t2.394-8.596V57.5q0-5.95-2.394-8.596-2.394-2.644-6.863-2.644h-9.257Zm48.929 16.53V29.729h49.59v16.53H982.18v30.574h24.966v16.53H982.18v35.546h31.407v16.53Zm60.01 0V29.729h22.81l17.682 69.255h.33V29.729h16.2v115.71h-18.673l-21.82-84.474h-.33v84.474Zm84.793 0v-99.18h-19.004v-16.53h56.202v16.53h-19.015v99.18Z"/><path fill="#e3f1ff" d="M424.428 10.755a42.5 42.5 0 0 0-19.116-5.192c-13.57 0-23.458 4.177-29.382 12.414-11.304 15.694-3.87 40.544-2.36 45.359a40.1 40.1 0 0 0 8.19 14.632 28.3 28.3 0 0 1 5.946 10.36c3.068 9.299 1.416 15.293-.708 22.916a63.7 63.7 0 0 0-2.926 23.057c1.676 23.364 16.662 40.899 23.246 45.312a8.73 8.73 0 0 0 4.72 1.746 4.7 4.7 0 0 0 1.463-.236c4.319-1.416 3.233-6.018 1.959-11.328-1.817-7.646-4.885-20.46.26-34.55 3.964-10.832 14.16-25.748 24.378-25.771 10.22-.024 20.367 14.986 24.214 25.889 5.145 14.16 2.077 26.904.26 34.55-1.275 5.31-2.36 9.912 1.958 11.328a4.7 4.7 0 0 0 1.464.236 8.73 8.73 0 0 0 4.72-1.746c6.584-4.413 21.57-21.948 23.222-45.312a63.7 63.7 0 0 0-2.997-23.08c-2.1-7.6-3.776-13.618-.708-22.916a28.3 28.3 0 0 1 5.947-10.36 40.1 40.1 0 0 0 8.19-14.633c1.604-4.72 9.062-29.641-2.36-45.359-5.76-8.33-15.624-12.508-29.194-12.508a42.5 42.5 0 0 0-19.07 5.192 33.04 33.04 0 0 1-14.654 4.248h-2.172a33.04 33.04 0 0 1-14.49-4.248m15.623 11.328a38.7 38.7 0 0 0 18.668-4.838 35.4 35.4 0 0 1 16.07-4.602c11.164 0 19.117 3.186 23.6 9.44 9.44 13.169 2.149 36.368 1.276 38.987a33 33 0 0 1-6.94 12.367 35.4 35.4 0 0 0-7.173 12.65c-3.752 11.35-1.534 19.304.59 27.021a56.6 56.6 0 0 1 2.76 20.697 63 63 0 0 1-17.416 37.76v-.094c1.865-7.882 5.358-22.538-.495-38.633-3.776-10.36-14.656-29.311-29.665-30.35h-2.738c-14.94 1.133-25.795 20.013-29.57 30.35-5.877 16.095-2.36 30.68-.496 38.633v.118a63 63 0 0 1-17.417-37.76 56.6 56.6 0 0 1 2.76-20.697c2.149-7.717 4.343-15.694.59-27.022a35.4 35.4 0 0 0-7.197-12.626 33 33 0 0 1-6.938-12.367c-.78-2.62-8.048-25.842 1.392-39.034 4.53-6.278 12.484-9.44 23.6-9.44a35.4 35.4 0 0 1 16.072 4.531 38.7 38.7 0 0 0 18.667 4.909"/></g><path fill="transparent" stroke="transparent" d="M360.5 0h779v187h-779z"/></g></svg>